DBRep_DrawableShape

CASCADE Topology V1, (c) Matra-Datavision
Locations 7
1
              1               0               0               0 
              0               1               0               0 
              0               0               1               0 
2  1 -1 0
1
              1               0               0               0 
              0               1               0               0 
              0               0               1               0 
1
              1               0               0               0 
              0               1               0               0 
              0               0               1               0 
2  3 1 4 -1 0
2  4 1 3 -1 0
2  1 -1 4 1 3 -1 0
Curve2ds 28
1 0 0 1 0 
1 0 214.64464360976029 1 0 
1 0 25.000000000000011 1 0 
2 0 0 1 0 -0 1 972.59766086420325
1 6.2831853071795862 0 0 1 
1 0 0 0 1 
1 0 0 1 0 
1 0 0 1 0 
1 6.2831853071795862 0 0 1 
1 0 0 0 1 
1 0 25.000000000000007 1 0 
2 0 0 -1 0 0 1 972.59766086420325
1 6.2831853071795862 0 0 1 
1 0 0 0 1 
2 0 0 -1 0 0 1 1008.2255921764911
1 0 4.7123889803846897 1 0 
1 0 5.9024022969102008 1 0 
1 0 5.9024022969102008 1 0 
1 6.2831853071795862 1.5707963267948961 0 1 
1 0 1.5707963267948961 0 1 
1 0 6.6639683174489717 1 0 
1 0 0.38078301026938566 1 0 
1 6.2831853071795862 1.5707963267948966 0 1 
1 0 1.5707963267948966 0 1 
1 0 1.5707963267948966 1 0 
2 0 0 1 0 -0 1 1008.2255921764911
1 6.2831853071795862 -4.7123889803846897 0 1 
1 0 -4.7123889803846897 0 1 
Curves 14
2 232.32232180488015 0 0 1 0 0 0 -1 0 0 0 -1 954.91999999999996
2 250 0 0 1 0 0 0 -1 0 0 0 -1 972.59766086420325
1 232.32232180488015 -954.91999999999996 0 0.7071071278047939 -0.70710643456813138 0 
2 17.677678195119849 0 0 1 0 0 0 -1 0 0 0 -1 954.91999999999996
1 17.677678195119849 -954.91999999999996 0 1 0 0 
2 0 0 0 1 0 0 0 -1 0 0 0 -1 972.59766086420325
1 17.677678195119849 -954.91999999999996 0 -0.70710712780479379 -0.70710643456813138 0 
2 0 0 0 1 0 0 0 -1 0 0 0 -1 1008.2255921764911
2 17.593869731800766 0 0 1 0 0 0 -1 0 0 0 -1 1034.2200618352717
2 28 -1008.2255921764911 0 0 0 1 1 0 0 0 1 0 28
2 232.40613026819921 0 0 1 0 0 0 -1 0 0 0 -1 1034.2200618352717
2 125 -765.92000000000007 0 0 0 1 1 0 0 0 1 0 289
2 250 0 0 1 0 0 0 -1 0 0 0 -1 1008.2255921764911
2 222 -1008.2255921764911 0 0 0 1 1 0 0 0 1 0 28
Polygon3D 0
PolygonOnTriangulations 0
Surfaces 8
3 232.32232180488015 0 0 1 0 0 0 -1 0 0 0 -1 954.91999999999996
0.78539767320510334
2 17.677678195119849 0 0 1 0 0 0 -1 0 0 0 -1 954.91999999999996
1 250 0 0 1 0 0 0 -1 0 0 0 -1 
3 17.677678195119849 0 0 -1 -0 -0 0 -1 0 0 0 -1 954.91999999999996
0.78539767320510334
1 0 0 0 1 0 0 0 1 0 0 0 -1 
5 28 0 0 1 0 0 0 -1 0 0 0 -1 1008.2255921764911 28
5 125 0 0 1 0 0 0 -1 0 0 0 -1 765.92000000000007 289
5 222 0 0 1 0 0 0 -1 0 0 0 -1 1008.2255921764911 28
Triangulations 0

TShapes 42
Ve
1e-007
232.32232180488 -954.92 0
0 0

0101101
*
Ed
 1e-007 1 1 0
1  1 0 0 6.28318530717959
2  1 1 0 0 6.28318530717959
2  2 2 0 0 6.28318530717959
0

0101100
+42 2 -42 2 *
Ve
1e-007
250 -972.597660864203 0
0 0

0101101
*
Ed
 1e-007 1 1 0
1  2 0 0 6.28318530717959
2  3 1 0 0 6.28318530717959
2  4 3 0 0 6.28318530717959
0

0101100
+40 2 -40 2 *
Ed
 1e-007 1 1 0
1  3 0 0 25
3  5 6CN 1 6 0 25
0

0101000
+42 7 -40 7 *
Wi

0101000
+41 0 -39 0 -38 5 +38 5 *
Fa
0  1e-007 1 0

0101000
+37 0 *
Ve
1e-007
17.6776781951198 -954.92 0
0 0

0101101
*
Ed
 1e-007 1 1 0
1  4 0 0 6.28318530717959
2  7 2 0 0 6.28318530717959
2  8 4 0 0 6.28318530717959
0

0101100
+35 2 -35 2 *
Ed
 1e-007 1 1 0
1  5 0 0 214.64464360976
3  9 10CN 2 6 0 214.64464360976
0

0101000
+35 7 -42 7 *
Wi

0101000
+34 0 -41 0 -33 5 +33 5 *
Fa
0  1e-007 2 0

0101000
+32 0 *
Ve
1e-007
0 -972.597660864203 0
0 0

0101101
*
Ed
 1e-007 1 1 0
1  6 0 0 6.28318530717959
2  11 4 0 0 6.28318530717959
2  12 5 0 0 6.28318530717959
0

0101100
+30 2 -30 2 *
Ed
 1e-007 1 1 0
1  7 0 0 25
3  13 14CN 4 6 0 25
0

0101000
+35 7 -30 7 *
Wi

0101000
+34 0 -29 0 -28 5 +28 5 *
Fa
0  1e-007 4 0

0101000
+27 0 *
Wi

0101000
+29 0 *
Ve
1e-007
0 -1008.22559217649 0
0 0

0101101
*
Ed
 1e-007 1 1 0
1  8 0 0 6.28318530717959
2  15 5 0 0 6.28318530717959
2  16 6 0 0 6.28318530717959
4 G1 5 0 6 0
0

0101100
+24 2 -24 2 *
Wi

0101000
-23 0 *
Fa
0  1e-007 5 0

0101000
+25 0 +22 0 *
Ve
1e-007
17.5938697318008 -1034.22006183527 0
0 0

0101101
*
Ed
 1e-007 1 1 0
1  9 0 0 6.28318530717959
2  17 6 0 0 6.28318530717959
2  18 7 0 0 6.28318530717959
4 G1 6 0 7 0
0

0101100
+20 2 -20 2 *
Ed
 1e-007 1 1 0
1  10 0 3.14159265358979 4.3316059701153
3  19 20CN 6 6 3.14159265358979 4.3316059701153
0

0101000
+24 7 -20 7 *
Wi

0101000
+23 0 -19 0 -18 5 +18 5 *
Fa
0  1e-007 6 0

0101000
+17 0 *
Ve
1.00000042632564e-007
232.406130268199 -1034.22006183527 0
0 0

0101101
*
Ed
 1.00000042632564e-007 1 1 0
1  11 0 0 6.28318530717959
2  21 7 0 0 6.28318530717959
2  22 8 0 0 6.28318530717959
4 G1 7 0 8 0
0

0101100
+15 2 -15 2 *
Ed
 1.00000042632564e-007 1 1 0
1  12 0 4.3316059701153 5.09317199065408
3  23 24CN 7 6 4.3316059701153 5.09317199065408
0

0101000
+20 7 -15 7 *
Wi

0101000
+19 0 -14 0 -13 5 +13 5 *
Fa
0  1e-007 7 0

0101000
+12 0 *
Ve
1e-007
250 -1008.22559217649 0
0 0

0101101
*
Ed
 1e-007 1 1 0
1  13 0 0 6.28318530717959
2  25 8 0 0 6.28318530717959
2  26 3 0 0 6.28318530717959
4 G1 8 0 3 0
0

0101100
+10 2 -10 2 *
Ed
 1e-007 1 1 0
1  14 0 5.09317199065408 6.28318530717959
3  27 28CN 8 6 5.09317199065408 6.28318530717959
0

0101000
+15 7 -10 7 *
Wi

0101000
+14 0 -9 0 -8 5 +8 5 *
Fa
0  1e-007 8 0

0101000
+7 0 *
Wi

0101000
+9 0 *
Wi

0101000
-39 0 *
Fa
0  1e-007 3 0

0101000
+5 0 +4 0 *
Sh

0101000
-36 0 -31 0 +26 0 +21 0 +16 0 +11 0 +6 0 +3 0 *
So

1100000
+2 0 *

+1 1 