DBRep_DrawableShape

CASCADE Topology V1, (c) Matra-Datavision
Locations 7
1
              1               0               0               0 
              0               1               0               0 
              0               0               1               0 
2  1 -1 0
1
              1               0               0               0 
              0               1               0               0 
              0               0               1               0 
1
              1               0               0               0 
              0               1               0               0 
              0               0               1               0 
2  3 1 4 -1 0
2  4 1 3 -1 0
2  1 -1 4 1 3 -1 0
Curve2ds 28
1 0 0.22902390792111935 1 0 
1 0 6.5122092151007056 1 0 
1 0 1.5707963267948966 1 0 
2 0 0 -1 0 0 1 1004.2587295309786
1 6.2831853071795862 -4.7123889803846897 0 1 
1 0 -4.7123889803846897 0 1 
1 0 6.0541613992584669 1 0 
1 0 6.0541613992584669 1 0 
1 6.2831853071795862 1.5707963267948966 0 1 
1 0 1.5707963267948966 0 1 
1 0 4.7123889803846897 1 0 
2 0 0 -1 0 0 1 1004.2587295309788
1 6.2831853071795862 1.5707963267948961 0 1 
1 0 1.5707963267948961 0 1 
2 0 0 -1 0 0 1 982.93080048511342
1 0 19.999999999999972 1 0 
1 0 1.130467124398243e-014 1 0 
1 0 3.3905058484168844 1 0 
1 6.2831853071795862 0 0 1 
1 0 0 0 1 
1 0 2.8926794587627018 1 0 
1 0 0 1 0 
1 6.2831853071795862 1.5707963267948966 0 1 
1 0 1.5707963267948966 0 1 
1 0 19.999999999999972 1 0 
2 0 0 -1 0 0 1 982.93080048511342
1 6.2831853071795862 0 0 1 
1 0 0 0 1 
Curves 14
2 218.308108108108 0 0 1 0 0 0 -1 0 0 0 -1 1044.188156316844
2 250 0 0 1 0 0 0 -1 0 0 0 -1 1004.2587295309786
2 209 -1004.2587295309786 0 0 0 1 1 0 0 0 1 0 41
2 31.691891891891903 0 0 1 0 0 0 -1 0 0 0 -1 1044.188156316844
2 125 -643.91999999999985 0 0 0 1 1 0 0 0 1 0 411
2 0 0 0 1 0 0 0 -1 0 0 0 -1 1004.2587295309788
2 41 -1004.2587295309788 0 0 0 1 1 0 0 0 1 0 41
2 0 0 0 1 0 0 0 -1 0 0 0 -1 982.93080048511342
2 14.142142556095862 0 0 1 0 0 0 -1 0 0 0 -1 968.78867179375084
1 14.142142556095878 -968.78867179375084 0 -0.7071071278047949 -0.70710643456813027 0 
2 235.85785744390412 0 0 1 0 0 0 -1 0 0 0 -1 968.78867179375084
2 125 -1404.9200000000001 0 0 0 1 1 0 0 0 1 0 450
2 250 0 0 1 0 0 0 -1 0 0 0 -1 982.93080048511342
1 235.85785744390412 -968.78867179375084 0 0.7071071278047949 -0.70710643456813038 0 
Polygon3D 0
PolygonOnTriangulations 0
Surfaces 8
5 209 0 0 1 0 0 0 -1 0 0 0 -1 1004.2587295309786 41
5 125 0 0 1 0 0 0 -1 0 0 0 -1 643.91999999999985 411
1 250 0 0 1 0 0 0 1 0 0 0 -1 
5 41 0 0 1 0 0 0 -1 0 0 0 -1 1004.2587295309788 41
1 0 0 0 1 0 0 0 1 0 0 0 -1 
3 14.142142556095878 0 0 -1 -0 -0 0 -1 0 0 0 -1 968.78867179375084
0.78539767320510179
5 125 0 0 1 0 0 0 -1 0 0 0 -1 1404.9200000000001 450
3 235.85785744390412 0 0 1 0 0 0 -1 0 0 0 -1 968.78867179375084
0.78539767320510201
Triangulations 0

TShapes 42
Ve
1.00000134064935e-007
218.308108108108 -1044.18815631684 0
0 0

0101101
*
Ed
 1.00000134064935e-007 1 1 0
1  1 0 0 6.28318530717959
2  1 1 0 0 6.28318530717959
2  2 2 0 0 6.28318530717959
4 G1 1 0 2 0
0

0101100
+42 2 -42 2 *
Ve
1e-007
250 -1004.25872953098 0
0 0

0101101
*
Ed
 1e-007 1 1 0
1  2 0 0 6.28318530717959
2  3 1 0 0 6.28318530717959
2  4 3 0 0 6.28318530717959
4 G1 1 0 3 0
0

0101100
+40 2 -40 2 *
Ed
 1e-007 1 1 0
1  3 0 4.94141288830581 6.28318530717959
3  5 6CN 1 6 4.94141288830581 6.28318530717959
0

0101000
+42 7 -40 7 *
Wi

0101000
+41 0 -39 0 -38 5 +38 5 *
Fa
0  1e-007 1 0

0101000
+37 0 *
Ve
1.00000010658141e-007
31.6918918918919 -1044.18815631684 0
0 0

0101101
*
Ed
 1.00000010658141e-007 1 1 0
1  4 0 0 6.28318530717959
2  7 2 0 0 6.28318530717959
2  8 4 0 0 6.28318530717959
4 G1 2 0 4 0
0

0101100
+35 2 -35 2 *
Ed
 1.00000134064935e-007 1 1 0
1  5 0 4.48336507246357 4.94141288830581
3  9 10CN 2 6 4.48336507246357 4.94141288830581
0

0101000
+35 7 -42 7 *
Wi

0101000
+34 0 -41 0 -33 5 +33 5 *
Fa
0  1e-007 2 0

0101000
+32 0 *
Ve
1e-007
0 -1004.25872953098 0
0 0

0101101
*
Ed
 1e-007 1 1 0
1  6 0 0 6.28318530717959
2  11 4 0 0 6.28318530717959
2  12 5 0 0 6.28318530717959
4 G1 4 0 5 0
0

0101100
+30 2 -30 2 *
Ed
 1.00000010658141e-007 1 1 0
1  7 0 3.14159265358979 4.48336507246357
3  13 14CN 4 6 3.14159265358979 4.48336507246357
0

0101000
+30 7 -35 7 *
Wi

0101000
+29 0 -34 0 -28 5 +28 5 *
Fa
0  1e-007 4 0

0101000
+27 0 *
Ve
1e-007
0 -982.930800485113 0
0 0

0101101
*
Ed
 1e-007 1 1 0
1  8 0 0 6.28318530717959
2  15 5 0 0 6.28318530717959
2  16 6 0 0 6.28318530717959
0

0101100
+25 2 -25 2 *
Wi

0101000
+24 0 *
Wi

0101000
-29 0 *
Fa
0  1e-007 5 0

0101000
+23 0 +22 0 *
Ve
1.00000058814582e-007
14.1421425560959 -968.788671793751 0
0 0

0101101
*
Ed
 1.00000058814582e-007 1 1 0
1  9 0 0 6.28318530717959
2  17 6 0 0 6.28318530717959
2  18 7 0 0 6.28318530717959
0

0101100
+20 2 -20 2 *
Ed
 1e-007 1 1 0
1  10 0 0 20
3  19 20CN 6 6 0 20
0

0101000
+20 7 -25 7 *
Wi

0101000
+19 0 -24 0 -18 5 +18 5 *
Fa
0  1e-007 6 0

0101000
+17 0 *
Ve
1.00000056843419e-007
235.857857443904 -968.788671793751 0
0 0

0101101
*
Ed
 1.00000056843419e-007 1 1 0
1  11 0 0 6.28318530717959
2  21 7 0 0 6.28318530717959
2  22 8 0 0 6.28318530717959
0

0101100
+15 2 -15 2 *
Ed
 1.00000058814582e-007 1 1 0
1  12 0 1.32188313196781 1.81970952162199
3  23 24CN 7 6 1.32188313196781 1.81970952162199
0

0101000
+15 7 -20 7 *
Wi

0101000
+14 0 -19 0 -13 5 +13 5 *
Fa
0  1e-007 7 0

0101000
+12 0 *
Ve
1e-007
250 -982.930800485113 0
0 0

0101101
*
Ed
 1e-007 1 1 0
1  13 0 0 6.28318530717959
2  25 8 0 0 6.28318530717959
2  26 3 0 0 6.28318530717959
0

0101100
+10 2 -10 2 *
Ed
 1e-007 1 1 0
1  14 0 0 20
3  27 28CN 8 6 0 20
0

0101000
+15 7 -10 7 *
Wi

0101000
+14 0 -9 0 -8 5 +8 5 *
Fa
0  1e-007 8 0

0101000
+7 0 *
Wi

0101000
+9 0 *
Wi

0101000
-39 0 *
Fa
0  1e-007 3 0

0101000
+5 0 +4 0 *
Sh

0101000
-36 0 -31 0 -26 0 -21 0 -16 0 -11 0 +6 0 +3 0 *
So

1100000
-2 0 *

+1 1 